<mxfile host="app.diagrams.net" agent="Mozilla/5.0 (Windows NT 10.0; Win64; x64) AppleWebKit/537.36 (KHTML, like Gecko) Chrome/127.0.0.0 Safari/537.36" version="24.7.6">
  <diagram name="PÃ¡gina-1" id="KRl-CM3uU43zqfVS1uU_">
    <mxGraphModel dx="1723" dy="760" grid="1" gridSize="10" guides="1" tooltips="1" connect="1" arrows="1" fold="1" page="1" pageScale="1" pageWidth="1169" pageHeight="827" math="0" shadow="0">
      <root>
        <mxCell id="0" />
        <mxCell id="1" parent="0" />
        <mxCell id="ZlBV5f1DdUsab7bZ8xmu-37" style="edgeStyle=orthogonalEdgeStyle;rounded=0;orthogonalLoop=1;jettySize=auto;html=1;exitX=1;exitY=0.5;exitDx=0;exitDy=0;entryX=0;entryY=0.5;entryDx=0;entryDy=0;" edge="1" parent="1" source="ZlBV5f1DdUsab7bZ8xmu-5" target="ZlBV5f1DdUsab7bZ8xmu-16">
          <mxGeometry relative="1" as="geometry" />
        </mxCell>
        <mxCell id="ZlBV5f1DdUsab7bZ8xmu-5" value="Pedido" style="html=1;whiteSpace=wrap;" vertex="1" parent="1">
          <mxGeometry x="70" y="400" width="110" height="50" as="geometry" />
        </mxCell>
        <mxCell id="ZlBV5f1DdUsab7bZ8xmu-38" style="edgeStyle=orthogonalEdgeStyle;rounded=0;orthogonalLoop=1;jettySize=auto;html=1;exitX=1;exitY=0.5;exitDx=0;exitDy=0;entryX=0;entryY=0.5;entryDx=0;entryDy=0;" edge="1" parent="1" source="ZlBV5f1DdUsab7bZ8xmu-16" target="ZlBV5f1DdUsab7bZ8xmu-31">
          <mxGeometry relative="1" as="geometry" />
        </mxCell>
        <mxCell id="ZlBV5f1DdUsab7bZ8xmu-45" style="edgeStyle=orthogonalEdgeStyle;rounded=0;orthogonalLoop=1;jettySize=auto;html=1;exitX=0.5;exitY=1;exitDx=0;exitDy=0;entryX=0;entryY=0.5;entryDx=0;entryDy=0;" edge="1" parent="1" source="ZlBV5f1DdUsab7bZ8xmu-16" target="ZlBV5f1DdUsab7bZ8xmu-52">
          <mxGeometry relative="1" as="geometry">
            <mxPoint x="740" y="685" as="targetPoint" />
          </mxGeometry>
        </mxCell>
        <mxCell id="ZlBV5f1DdUsab7bZ8xmu-16" value="Pago" style="html=1;whiteSpace=wrap;" vertex="1" parent="1">
          <mxGeometry x="350" y="400" width="110" height="50" as="geometry" />
        </mxCell>
        <mxCell id="ZlBV5f1DdUsab7bZ8xmu-40" style="edgeStyle=orthogonalEdgeStyle;rounded=0;orthogonalLoop=1;jettySize=auto;html=1;exitX=1;exitY=0.5;exitDx=0;exitDy=0;entryX=0;entryY=0.5;entryDx=0;entryDy=0;" edge="1" parent="1" source="ZlBV5f1DdUsab7bZ8xmu-21" target="ZlBV5f1DdUsab7bZ8xmu-23">
          <mxGeometry relative="1" as="geometry" />
        </mxCell>
        <mxCell id="ZlBV5f1DdUsab7bZ8xmu-47" style="edgeStyle=orthogonalEdgeStyle;rounded=0;orthogonalLoop=1;jettySize=auto;html=1;exitX=0.5;exitY=1;exitDx=0;exitDy=0;entryX=0.5;entryY=0;entryDx=0;entryDy=0;" edge="1" parent="1" source="ZlBV5f1DdUsab7bZ8xmu-21" target="ZlBV5f1DdUsab7bZ8xmu-52">
          <mxGeometry relative="1" as="geometry">
            <mxPoint x="820" y="685" as="targetPoint" />
          </mxGeometry>
        </mxCell>
        <mxCell id="ZlBV5f1DdUsab7bZ8xmu-21" value="Preparando" style="html=1;whiteSpace=wrap;" vertex="1" parent="1">
          <mxGeometry x="790" y="400" width="110" height="50" as="geometry" />
        </mxCell>
        <mxCell id="ZlBV5f1DdUsab7bZ8xmu-41" style="edgeStyle=orthogonalEdgeStyle;rounded=0;orthogonalLoop=1;jettySize=auto;html=1;exitX=1;exitY=0.5;exitDx=0;exitDy=0;entryX=0;entryY=0.5;entryDx=0;entryDy=0;" edge="1" parent="1" source="ZlBV5f1DdUsab7bZ8xmu-23" target="ZlBV5f1DdUsab7bZ8xmu-26">
          <mxGeometry relative="1" as="geometry" />
        </mxCell>
        <mxCell id="ZlBV5f1DdUsab7bZ8xmu-23" value="Pronto" style="html=1;whiteSpace=wrap;" vertex="1" parent="1">
          <mxGeometry x="1050" y="400" width="110" height="50" as="geometry" />
        </mxCell>
        <mxCell id="ZlBV5f1DdUsab7bZ8xmu-42" style="edgeStyle=orthogonalEdgeStyle;rounded=0;orthogonalLoop=1;jettySize=auto;html=1;exitX=1;exitY=0.5;exitDx=0;exitDy=0;entryX=0;entryY=0.5;entryDx=0;entryDy=0;" edge="1" parent="1" source="ZlBV5f1DdUsab7bZ8xmu-26" target="ZlBV5f1DdUsab7bZ8xmu-29">
          <mxGeometry relative="1" as="geometry" />
        </mxCell>
        <mxCell id="ZlBV5f1DdUsab7bZ8xmu-48" style="edgeStyle=orthogonalEdgeStyle;rounded=0;orthogonalLoop=1;jettySize=auto;html=1;exitX=0.5;exitY=1;exitDx=0;exitDy=0;entryX=1;entryY=0.5;entryDx=0;entryDy=0;" edge="1" parent="1" source="ZlBV5f1DdUsab7bZ8xmu-26" target="ZlBV5f1DdUsab7bZ8xmu-52">
          <mxGeometry relative="1" as="geometry">
            <mxPoint x="820" y="685" as="targetPoint" />
          </mxGeometry>
        </mxCell>
        <mxCell id="ZlBV5f1DdUsab7bZ8xmu-26" value="Entregando" style="html=1;whiteSpace=wrap;" vertex="1" parent="1">
          <mxGeometry x="1290" y="400" width="110" height="50" as="geometry" />
        </mxCell>
        <mxCell id="ZlBV5f1DdUsab7bZ8xmu-55" style="edgeStyle=orthogonalEdgeStyle;rounded=0;orthogonalLoop=1;jettySize=auto;html=1;exitX=0.5;exitY=1;exitDx=0;exitDy=0;entryX=1;entryY=0.5;entryDx=0;entryDy=0;" edge="1" parent="1" source="ZlBV5f1DdUsab7bZ8xmu-29" target="ZlBV5f1DdUsab7bZ8xmu-53">
          <mxGeometry relative="1" as="geometry" />
        </mxCell>
        <mxCell id="ZlBV5f1DdUsab7bZ8xmu-29" value="Entregue" style="html=1;whiteSpace=wrap;" vertex="1" parent="1">
          <mxGeometry x="1520" y="400" width="110" height="50" as="geometry" />
        </mxCell>
        <mxCell id="ZlBV5f1DdUsab7bZ8xmu-39" style="edgeStyle=orthogonalEdgeStyle;rounded=0;orthogonalLoop=1;jettySize=auto;html=1;exitX=1;exitY=0.5;exitDx=0;exitDy=0;entryX=0;entryY=0.5;entryDx=0;entryDy=0;" edge="1" parent="1" source="ZlBV5f1DdUsab7bZ8xmu-31" target="ZlBV5f1DdUsab7bZ8xmu-21">
          <mxGeometry relative="1" as="geometry" />
        </mxCell>
        <mxCell id="ZlBV5f1DdUsab7bZ8xmu-46" style="edgeStyle=orthogonalEdgeStyle;rounded=0;orthogonalLoop=1;jettySize=auto;html=1;exitX=0.5;exitY=1;exitDx=0;exitDy=0;entryX=0.5;entryY=0;entryDx=0;entryDy=0;" edge="1" parent="1" source="ZlBV5f1DdUsab7bZ8xmu-31" target="ZlBV5f1DdUsab7bZ8xmu-52">
          <mxGeometry relative="1" as="geometry">
            <mxPoint x="780" y="650" as="targetPoint" />
          </mxGeometry>
        </mxCell>
        <mxCell id="ZlBV5f1DdUsab7bZ8xmu-31" value="Aguardando" style="html=1;whiteSpace=wrap;" vertex="1" parent="1">
          <mxGeometry x="580" y="400" width="110" height="50" as="geometry" />
        </mxCell>
        <mxCell id="ZlBV5f1DdUsab7bZ8xmu-54" style="edgeStyle=orthogonalEdgeStyle;rounded=0;orthogonalLoop=1;jettySize=auto;html=1;exitX=0.5;exitY=1;exitDx=0;exitDy=0;entryX=0.5;entryY=0;entryDx=0;entryDy=0;" edge="1" parent="1" source="ZlBV5f1DdUsab7bZ8xmu-52" target="ZlBV5f1DdUsab7bZ8xmu-53">
          <mxGeometry relative="1" as="geometry" />
        </mxCell>
        <mxCell id="ZlBV5f1DdUsab7bZ8xmu-52" value="Cancelado" style="html=1;whiteSpace=wrap;" vertex="1" parent="1">
          <mxGeometry x="690" y="700" width="110" height="50" as="geometry" />
        </mxCell>
        <mxCell id="ZlBV5f1DdUsab7bZ8xmu-53" value="" style="ellipse;html=1;shape=endState;fillColor=#000000;strokeColor=#ff0000;" vertex="1" parent="1">
          <mxGeometry x="730" y="840" width="30" height="30" as="geometry" />
        </mxCell>
        <mxCell id="ZlBV5f1DdUsab7bZ8xmu-57" value="" style="ellipse;html=1;shape=startState;fillColor=#000000;strokeColor=#ff0000;" vertex="1" parent="1">
          <mxGeometry x="110" y="311" width="30" height="30" as="geometry" />
        </mxCell>
        <mxCell id="ZlBV5f1DdUsab7bZ8xmu-58" value="" style="edgeStyle=orthogonalEdgeStyle;html=1;verticalAlign=bottom;endArrow=open;endSize=8;strokeColor=#ff0000;rounded=0;" edge="1" source="ZlBV5f1DdUsab7bZ8xmu-57" parent="1">
          <mxGeometry relative="1" as="geometry">
            <mxPoint x="125" y="401" as="targetPoint" />
          </mxGeometry>
        </mxCell>
      </root>
    </mxGraphModel>
  </diagram>
</mxfile>
